# xmcd
#
# Track frame offsets: 
#        150
#        13211
#        24860
#        41930
#        54655
#        64927
#        83094
#        99822
#        128180
#        142091
#        154888
#        164200
#        176517
#        197180
#        208655
#        224109
#
# Disc length: 3158 seconds
#
# Revision: 0
# Processed by: cddbd v1.5.2PL0 Copyright (c) Steve Scherf et al.
# Submitted via: ExactAudioCopy v1.0b3
#
DISCID=f40c5410
DTITLE=Various Artist - Heavy Heart Blues - CD02
DYEAR=1900
DGENRE=Blues
TTITLE0=Big Bill Broonzy - You Do Me Any Old Way
TTITLE1=Screamin Jay Hawkins - You're All My Life To Me
TTITLE2=John Lee Hooker - Goin' Mad Blues
TTITLE3=Johnny Guitar Watson - Love Me Baby
TTITLE4=King Curtis and Tony Middleton - Count Your Blessings
TTITLE5=Guitar Slim - Outdoor Weather Blues
TTITLE6=Memphis Slim - Just Landed In Your Town
TTITLE7=Lightnin’ Hopkins - Wonder Why
TTITLE8=Leroy Carr - Mean Mistreater Mama
TTITLE9=Clarence Gatemouth Brown - She Walks Right In
TTITLE10=Little Walter - Crazy Mixed Up World
TTITLE11=Buddy Guy - You Sure Can't Do
TTITLE12=Bo Diddley - I'm Sorry
TTITLE13=Champion Jack Dupree - Big Time Mama
TTITLE14=Sonny Boy Williamson - Bluebird Blues Part 2
TTITLE15=Bukka White - High Fever Blues
EXTD=
EXTT0=
EXTT1=
EXTT2=
EXTT3=
EXTT4=
EXTT5=
EXTT6=
EXTT7=
EXTT8=
EXTT9=
EXTT10=
EXTT11=
EXTT12=
EXTT13=
EXTT14=
EXTT15=
PLAYORDER=
